<svg width="64" height="43" viewBox="0 0 64 43" fill="none" xmlns="http://www.w3.org/2000/svg">
<path d="M16.38 13.9404C15.803 14.6285 14.8798 15.1712 13.9566 15.0937C13.8412 14.1633 14.2932 13.1748 14.8221 12.5642C15.3991 11.8567 16.4088 11.3527 17.2262 11.314C17.3224 12.2831 16.9474 13.2329 16.38 13.9404ZM17.2166 15.2778C15.8799 15.2003 14.7356 16.0435 14.1009 16.0435C13.4566 16.0435 12.4853 15.3166 11.4275 15.336C10.0523 15.3554 8.77333 16.1404 8.07133 17.3906C6.62886 19.891 7.69629 23.5932 9.09068 25.6285C9.77345 26.6364 10.5909 27.7413 11.6679 27.7025C12.6872 27.6637 13.0911 27.0338 14.322 27.0338C15.5626 27.0338 15.9184 27.7025 16.9954 27.6831C18.1109 27.6637 18.813 26.6752 19.4957 25.6673C20.2747 24.5236 20.592 23.4091 20.6112 23.351C20.592 23.3316 18.4571 22.5078 18.4379 20.0267C18.4187 17.9527 20.1208 16.9642 20.1977 16.906C19.2361 15.4717 17.7359 15.3166 17.2166 15.2778ZM24.9387 12.4673V27.5765H27.2659V22.4109H30.4874C33.43 22.4109 35.4976 20.3756 35.4976 17.4294C35.4976 14.4831 33.4685 12.4673 30.5643 12.4673H24.9387ZM27.2659 14.4444H29.9489C31.9683 14.4444 33.1223 15.5298 33.1223 17.4391C33.1223 19.3483 31.9683 20.4435 29.9392 20.4435H27.2659V14.4444ZM39.7481 27.6928C41.2098 27.6928 42.5657 26.9466 43.1811 25.7642H43.2292V27.5765H45.3833V20.0558C45.3833 17.8752 43.6524 16.4699 40.9886 16.4699C38.5171 16.4699 36.69 17.8946 36.6227 19.8523H38.7191C38.8922 18.9219 39.7481 18.3113 40.9213 18.3113C42.3445 18.3113 43.1427 18.98 43.1427 20.2109V21.0444L40.2385 21.2188C37.5363 21.3836 36.0746 22.4981 36.0746 24.4364C36.0746 26.3941 37.5843 27.6928 39.7481 27.6928ZM40.3731 25.8999C39.1326 25.8999 38.344 25.299 38.344 24.3783C38.344 23.4285 39.1038 22.8761 40.5558 22.7888L43.1427 22.6241V23.4769C43.1427 24.8919 41.9502 25.8999 40.3731 25.8999ZM48.2587 31.6858C50.5281 31.6858 51.5956 30.8135 52.5284 28.1677L56.6154 16.6153H54.2497L51.509 25.5413H51.4609L48.7202 16.6153H46.2873L50.23 27.6153L50.0185 28.284C49.6627 29.4179 49.0857 29.854 48.0567 29.854C47.874 29.854 47.5182 29.8347 47.3739 29.8153V31.6276C47.5086 31.6664 48.0856 31.6858 48.2587 31.6858Z" fill="white"/>
</svg>
