<svg width="63" height="63" viewBox="0 0 63 63" fill="none" xmlns="http://www.w3.org/2000/svg">
<circle cx="31.5" cy="31.5" r="31.5" fill="#FA7451"/>
<path d="M31.7149 34.2413C31.679 34.2413 31.6253 34.2413 31.5894 34.2413C31.5357 34.2413 31.464 34.2413 31.4103 34.2413C27.3432 34.1159 24.2974 30.9446 24.2974 27.0388C24.2974 23.0613 27.5403 19.8184 31.5178 19.8184C35.4953 19.8184 38.7382 23.0613 38.7382 27.0388C38.7203 30.9625 35.6565 34.1159 31.7686 34.2413C31.7328 34.2413 31.7328 34.2413 31.7149 34.2413ZM31.4999 22.4879C28.9915 22.4879 26.9669 24.5304 26.9669 27.0209C26.9669 29.4754 28.884 31.4642 31.3207 31.5538C31.3744 31.5359 31.5536 31.5359 31.7328 31.5538C34.1336 31.4284 36.0149 29.4575 36.0328 27.0209C36.0328 24.5304 34.0082 22.4879 31.4999 22.4879Z" fill="white"/>
<path d="M31.5002 50.7604C26.6806 50.7604 22.076 48.9688 18.5106 45.7079C18.1881 45.4213 18.0447 44.9913 18.0806 44.5792C18.3135 42.4471 19.6393 40.4583 21.8431 38.9892C27.1822 35.4417 35.836 35.4417 41.1572 38.9892C43.361 40.4763 44.6868 42.4471 44.9197 44.5792C44.9735 45.0092 44.8122 45.4213 44.4897 45.7079C40.9243 48.9688 36.3197 50.7604 31.5002 50.7604ZM20.8935 44.2208C23.8677 46.7113 27.6122 48.0729 31.5002 48.0729C35.3881 48.0729 39.1327 46.7113 42.1068 44.2208C41.7843 43.1279 40.9243 42.0708 39.6522 41.2108C35.2447 38.2725 27.7735 38.2725 23.3302 41.2108C22.0581 42.0708 21.216 43.1279 20.8935 44.2208Z" fill="white"/>
<path d="M31.5002 50.7604C20.8756 50.7604 12.2397 42.1246 12.2397 31.5C12.2397 20.8754 20.8756 12.2396 31.5002 12.2396C42.1247 12.2396 50.7606 20.8754 50.7606 31.5C50.7606 42.1246 42.1247 50.7604 31.5002 50.7604ZM31.5002 14.9271C22.3627 14.9271 14.9272 22.3625 14.9272 31.5C14.9272 40.6375 22.3627 48.0729 31.5002 48.0729C40.6377 48.0729 48.0731 40.6375 48.0731 31.5C48.0731 22.3625 40.6377 14.9271 31.5002 14.9271Z" fill="white"/>
</svg>
