<svg width="32" height="32" viewBox="0 0 32 32" fill="none" xmlns="http://www.w3.org/2000/svg">
<g clip-path="url(#clip0_335_482)">
<path d="M6.92001 8.50667C6.66667 8.50667 6.40001 8.4 6.21334 8.21333C5.82667 7.82666 5.82667 7.18666 6.21334 6.8L11.0533 1.96C11.44 1.57333 12.08 1.57333 12.4667 1.96C12.8533 2.34666 12.8533 2.98666 12.4667 3.37333L7.62667 8.21333C7.42667 8.4 7.17334 8.50667 6.92001 8.50667Z" fill="#FA7451"/>
<path d="M25.08 8.50667C24.8266 8.50667 24.5733 8.41333 24.3733 8.21333L19.5333 3.37333C19.1466 2.98666 19.1466 2.34666 19.5333 1.96C19.92 1.57333 20.56 1.57333 20.9466 1.96L25.7866 6.8C26.1733 7.18666 26.1733 7.82666 25.7866 8.21333C25.6 8.4 25.3333 8.50667 25.08 8.50667Z" fill="#FA7451"/>
<path d="M26.9466 14.1333C26.8533 14.1333 26.76 14.1333 26.6666 14.1333H26.36H5.33329C4.39996 14.1467 3.33329 14.1467 2.55996 13.3733C1.94663 12.7733 1.66663 11.84 1.66663 10.4667C1.66663 6.8 4.34663 6.8 5.62663 6.8H26.3733C27.6533 6.8 30.3333 6.8 30.3333 10.4667C30.3333 11.8533 30.0533 12.7733 29.44 13.3733C28.7466 14.0667 27.8133 14.1333 26.9466 14.1333ZM5.62663 12.1333H26.68C27.28 12.1467 27.84 12.1467 28.0266 11.96C28.12 11.8667 28.32 11.5467 28.32 10.4667C28.32 8.96 27.9466 8.8 26.36 8.8H5.62663C4.03996 8.8 3.66663 8.96 3.66663 10.4667C3.66663 11.5467 3.87996 11.8667 3.95996 11.96C4.14663 12.1333 4.71996 12.1333 5.30663 12.1333H5.62663Z" fill="#FA7451"/>
<path d="M13.0133 24.4C12.4666 24.4 12.0133 23.9467 12.0133 23.4V18.6667C12.0133 18.12 12.4666 17.6667 13.0133 17.6667C13.56 17.6667 14.0133 18.12 14.0133 18.6667V23.4C14.0133 23.96 13.56 24.4 13.0133 24.4Z" fill="#FA7451"/>
<path d="M19.1466 24.4C18.5999 24.4 18.1466 23.9467 18.1466 23.4V18.6667C18.1466 18.12 18.5999 17.6667 19.1466 17.6667C19.6933 17.6667 20.1466 18.12 20.1466 18.6667V23.4C20.1466 23.96 19.6933 24.4 19.1466 24.4Z" fill="#FA7451"/>
<path d="M19.8533 30.3333H11.8133C7.03996 30.3333 5.97329 27.4933 5.55996 25.0267L3.67996 13.4933C3.58662 12.9467 3.95996 12.44 4.50662 12.3467C5.05329 12.2533 5.55996 12.6267 5.65329 13.1733L7.53329 24.6933C7.91996 27.0533 8.71996 28.3333 11.8133 28.3333H19.8533C23.28 28.3333 23.6666 27.1333 24.1066 24.8133L26.3466 13.1467C26.4533 12.6 26.9733 12.24 27.52 12.36C28.0666 12.4667 28.4133 12.9867 28.3066 13.5333L26.0666 25.2C25.5466 27.9067 24.68 30.3333 19.8533 30.3333Z" fill="#FA7451"/>
</g>
<defs>
<clipPath id="clip0_335_482">
<rect width="32" height="32" fill="white"/>
</clipPath>
</defs>
</svg>
