<svg width="32" height="32" viewBox="0 0 32 32" fill="none" xmlns="http://www.w3.org/2000/svg">
<path d="M23.2667 30.3333C21.76 30.3333 20.1734 29.9733 18.5334 29.28C16.9334 28.6 15.32 27.6667 13.7467 26.5333C12.1867 25.3867 10.68 24.1067 9.25335 22.7067C7.84002 21.28 6.56002 19.7733 5.42669 18.2267C4.28002 16.6267 3.36002 15.0267 2.70669 13.48C2.01335 11.8267 1.66669 10.2267 1.66669 8.72C1.66669 7.68 1.85335 6.69333 2.21335 5.77333C2.58669 4.82667 3.18669 3.94667 4.00002 3.18667C5.02669 2.17333 6.20002 1.66667 7.45335 1.66667C7.97335 1.66667 8.50669 1.78667 8.96002 2C9.48002 2.24 9.92002 2.6 10.24 3.08L13.3334 7.44C13.6134 7.82667 13.8267 8.2 13.9734 8.57333C14.1467 8.97333 14.24 9.37333 14.24 9.76C14.24 10.2667 14.0934 10.76 13.8134 11.2267C13.6134 11.5867 13.3067 11.9733 12.92 12.36L12.0134 13.3067C12.0267 13.3467 12.04 13.3733 12.0534 13.4C12.2134 13.68 12.5334 14.16 13.1467 14.88C13.8 15.6267 14.4134 16.3067 15.0267 16.9333C15.8134 17.7067 16.4667 18.32 17.08 18.8267C17.84 19.4667 18.3334 19.7867 18.6267 19.9333L18.6 20L19.5734 19.04C19.9867 18.6267 20.3867 18.32 20.7734 18.12C21.5067 17.6667 22.44 17.5867 23.3734 17.9733C23.72 18.12 24.0934 18.32 24.4934 18.6L28.92 21.7467C29.4134 22.08 29.7734 22.5067 29.9867 23.0133C30.1867 23.52 30.28 23.9867 30.28 24.4533C30.28 25.0933 30.1334 25.7333 29.8534 26.3333C29.5734 26.9333 29.2267 27.4533 28.7867 27.9333C28.0267 28.7733 27.2 29.3733 26.24 29.76C25.32 30.1333 24.32 30.3333 23.2667 30.3333ZM7.45335 3.66667C6.72002 3.66667 6.04002 3.98667 5.38669 4.62667C4.77335 5.2 4.34669 5.82667 4.08002 6.50667C3.80002 7.2 3.66669 7.93333 3.66669 8.72C3.66669 9.96 3.96002 11.3067 4.54669 12.6933C5.14669 14.1067 5.98669 15.5733 7.05335 17.04C8.12002 18.5067 9.33335 19.9333 10.6667 21.28C12 22.6 13.44 23.8267 14.92 24.9067C16.36 25.96 17.84 26.8133 19.3067 27.4267C21.5867 28.4 23.72 28.6267 25.48 27.8933C26.16 27.6133 26.76 27.1867 27.3067 26.5733C27.6134 26.24 27.8534 25.88 28.0534 25.4533C28.2134 25.12 28.2934 24.7733 28.2934 24.4267C28.2934 24.2133 28.2534 24 28.1467 23.76C28.1067 23.68 28.0267 23.5333 27.7734 23.36L23.3467 20.2133C23.08 20.0267 22.84 19.8933 22.6134 19.8C22.32 19.68 22.2 19.56 21.7467 19.84C21.48 19.9733 21.24 20.1733 20.9734 20.44L19.96 21.44C19.44 21.9467 18.64 22.0667 18.0267 21.84L17.6667 21.68C17.12 21.3867 16.48 20.9333 15.7734 20.3333C15.1334 19.7867 14.44 19.1467 13.6 18.32C12.9467 17.6533 12.2934 16.9467 11.6134 16.16C10.9867 15.4267 10.5334 14.8 10.2534 14.28L10.0934 13.88C10.0134 13.5733 9.98669 13.4 9.98669 13.2133C9.98669 12.7333 10.16 12.3067 10.4934 11.9733L11.4934 10.9333C11.76 10.6667 11.96 10.4133 12.0934 10.1867C12.2 10.0133 12.24 9.86667 12.24 9.73334C12.24 9.62667 12.2 9.46667 12.1334 9.30667C12.04 9.09333 11.8934 8.85333 11.7067 8.6L8.61335 4.22667C8.48002 4.04 8.32002 3.90667 8.12002 3.81333C7.90669 3.72 7.68002 3.66667 7.45335 3.66667ZM18.6 20.0133L18.3867 20.92L18.7467 19.9867C18.68 19.9733 18.6267 19.9867 18.6 20.0133Z" fill="#FA7451"/>
<path d="M24.6667 13C24.12 13 23.6667 12.5467 23.6667 12C23.6667 11.52 23.1867 10.52 22.3867 9.66667C21.6 8.82667 20.7333 8.33333 20 8.33333C19.4533 8.33333 19 7.88 19 7.33333C19 6.78667 19.4533 6.33333 20 6.33333C21.2933 6.33333 22.6533 7.02667 23.84 8.29333C24.9467 9.48 25.6667 10.9333 25.6667 12C25.6667 12.5467 25.2133 13 24.6667 13Z" fill="#FA7451"/>
<path d="M29.3333 13C28.7867 13 28.3333 12.5467 28.3333 12C28.3333 7.4 24.6 3.66667 20 3.66667C19.4533 3.66667 19 3.21333 19 2.66667C19 2.12 19.4533 1.66667 20 1.66667C25.6933 1.66667 30.3333 6.30667 30.3333 12C30.3333 12.5467 29.88 13 29.3333 13Z" fill="#FA7451"/>
</svg>
