<svg width="21" height="21" viewBox="0 0 21 21" fill="none" xmlns="http://www.w3.org/2000/svg">
<path d="M10.5 19.9062C5.31125 19.9062 1.09375 15.6888 1.09375 10.5C1.09375 5.31125 5.31125 1.09375 10.5 1.09375C15.6888 1.09375 19.9062 5.31125 19.9062 10.5C19.9062 15.6888 15.6888 19.9062 10.5 19.9062ZM10.5 2.40625C6.0375 2.40625 2.40625 6.0375 2.40625 10.5C2.40625 14.9625 6.0375 18.5938 10.5 18.5938C14.9625 18.5938 18.5938 14.9625 18.5938 10.5C18.5938 6.0375 14.9625 2.40625 10.5 2.40625Z" fill="white"/>
<path d="M13.7463 13.9388C13.6326 13.9388 13.5188 13.9125 13.4138 13.8425L10.7013 12.2238C10.0276 11.8213 9.52881 10.9375 9.52881 10.1588V6.57129C9.52881 6.21254 9.82631 5.91504 10.1851 5.91504C10.5438 5.91504 10.8413 6.21254 10.8413 6.57129V10.1588C10.8413 10.4738 11.1038 10.9375 11.3751 11.095L14.0876 12.7138C14.4026 12.8975 14.4988 13.3 14.3151 13.615C14.1838 13.825 13.9651 13.9388 13.7463 13.9388Z" fill="white"/>
</svg>
