<svg width="21" height="22" viewBox="0 0 21 22" fill="none" xmlns="http://www.w3.org/2000/svg">
<ellipse cx="10.4283" cy="10.5624" rx="10.4283" ry="10.5624" fill="#4E6297"/>
<path d="M15.121 7.29815C15.121 6.50734 14.4321 5.80957 13.6513 5.80957H7.72664C6.94587 5.80957 6.25696 6.50734 6.25696 7.29815V13.299C6.25696 14.0898 6.94587 14.7876 7.72664 14.7876H10.7119V11.3918H9.60967V9.90318H10.7119V9.29844C10.7119 8.27504 11.4468 7.39119 12.3653 7.39119H13.5594V8.87977H12.3653C12.2275 8.87977 12.0898 9.01933 12.0898 9.29844V9.90318H13.5594V11.3918H12.0898V14.7876H13.6513C14.4321 14.7876 15.121 14.0898 15.121 13.299V7.29815Z" fill="white"/>
</svg>
