<svg width="52" height="21" viewBox="0 0 52 21" fill="none" xmlns="http://www.w3.org/2000/svg">
<path d="M24.1328 10.0431V16.0688H22.2485V1.18801H27.246C27.8425 1.17537 28.4356 1.2827 28.991 1.50381C29.5464 1.72492 30.0532 2.05543 30.4821 2.47626C30.9153 2.87155 31.26 3.35633 31.4932 3.89801C31.7263 4.4397 31.8425 5.02574 31.8339 5.61675C31.8463 6.21093 31.7319 6.8008 31.4986 7.34593C31.2652 7.89107 30.9185 8.37858 30.4821 8.77505C29.6082 9.62043 28.5295 10.0427 27.246 10.0419H24.1328V10.0431ZM24.1328 3.02006V8.21463H27.2928C27.6392 8.22505 27.984 8.162 28.305 8.02952C28.6261 7.89703 28.9163 7.69803 29.1572 7.44524C29.3968 7.20889 29.5873 6.92619 29.7174 6.61386C29.8475 6.30153 29.9145 5.96591 29.9145 5.62684C29.9145 5.28778 29.8475 4.95216 29.7174 4.63983C29.5873 4.3275 29.3968 4.0448 29.1572 3.80845C28.9193 3.55033 28.6301 3.34645 28.3087 3.21033C27.9872 3.07421 27.641 3.00895 27.2928 3.01887H24.1328V3.02006Z" fill="white"/>
<path d="M36.176 5.55469C37.5687 5.55469 38.6681 5.93226 39.4741 6.6874C40.2801 7.44254 40.6827 8.47789 40.6819 9.79346V16.0685H38.8795V14.6556H38.7976C38.0174 15.8192 36.9796 16.4009 35.6844 16.4009C34.5788 16.4009 33.6538 16.0685 32.9094 15.4036C32.5522 15.0984 32.2666 14.7162 32.0735 14.2849C31.8803 13.8535 31.7845 13.3839 31.7929 12.9102C31.7929 11.8566 32.1854 11.0188 32.9703 10.3966C33.7552 9.77446 34.8031 9.46259 36.1139 9.461C37.2328 9.461 38.1543 9.66879 38.8784 10.0844V9.64741C38.8805 9.32448 38.8118 9.00511 38.6771 8.71247C38.5425 8.41983 38.3454 8.16124 38.1001 7.95547C37.6018 7.49939 36.9524 7.25054 36.2813 7.25851C35.2287 7.25851 34.3958 7.7089 33.7825 8.60969L32.1229 7.5494C33.0358 6.21959 34.3868 5.55469 36.176 5.55469ZM33.7381 12.9518C33.7368 13.195 33.7929 13.4351 33.9016 13.652C34.0103 13.8688 34.1685 14.0562 34.363 14.1985C34.7798 14.531 35.2971 14.7072 35.8272 14.6971C36.6223 14.6958 37.3845 14.3747 37.9467 13.8043C38.5709 13.2082 38.883 12.5089 38.883 11.7062C38.2955 11.2313 37.4762 10.9938 36.4253 10.9938C35.6598 10.9938 35.0216 11.181 34.5105 11.5555C33.9944 11.9354 33.7381 12.3973 33.7381 12.9518Z" fill="white"/>
<path d="M51.028 5.8877L44.7361 20.5572H42.7909L45.1258 15.4243L40.9886 5.8877H43.0367L46.027 13.2016H46.068L48.9764 5.8877H51.028Z" fill="white"/>
<path d="M16.5183 8.74411C16.519 8.16155 16.4705 7.58 16.3732 7.00586H8.42633V10.2983H12.9779C12.8848 10.8242 12.6876 11.3255 12.3984 11.7719C12.1092 12.2184 11.7338 12.6009 11.2949 12.8962V15.0334H14.0114C15.6019 13.5457 16.5183 11.3456 16.5183 8.74411Z" fill="#4285F4"/>
<path d="M8.42637 17.0982C10.7004 17.0982 12.6151 16.3407 14.0114 15.0346L11.295 12.8974C10.5389 13.4175 9.56514 13.7143 8.42637 13.7143C6.2284 13.7143 4.36282 12.2111 3.69571 10.1855H0.897339V12.388C1.59871 13.8039 2.67418 14.9941 4.00368 15.8259C5.33319 16.6576 6.8644 17.0981 8.42637 17.0982Z" fill="#34A853"/>
<path d="M3.69566 10.1857C3.34298 9.1243 3.34298 7.97486 3.69566 6.91344V4.71094H0.897294C0.30728 5.90201 0 7.21656 0 8.54958C0 9.88259 0.30728 11.1971 0.897294 12.3882L3.69566 10.1857Z" fill="#FBBC04"/>
<path d="M8.42637 3.38445C9.6281 3.36453 10.7893 3.82516 11.6589 4.66677L14.0641 2.2268C12.539 0.773603 10.5186 -0.0242295 8.42637 0.00056088C6.8644 0.000633099 5.33319 0.441125 4.00368 1.27286C2.67418 2.10459 1.59871 3.29483 0.897339 4.7107L3.69571 6.9132C4.36282 4.88761 6.2284 3.38445 8.42637 3.38445Z" fill="#EA4335"/>
</svg>
