<svg width="21" height="22" viewBox="0 0 21 22" fill="none" xmlns="http://www.w3.org/2000/svg">
<ellipse cx="10.4283" cy="10.5624" rx="10.4283" ry="10.5624" fill="url(#paint0_linear_335_385)"/>
<path d="M13.8596 6.3374H7.51838C6.80244 6.3374 6.25696 6.8899 6.25696 7.61505V14.0378C6.25696 14.7629 6.80244 15.3154 7.51838 15.3154H13.8596C14.5755 15.3154 15.121 14.7629 15.121 14.0378V7.61505C15.121 6.8899 14.5755 6.3374 13.8596 6.3374ZM10.689 13.5198C12.1549 13.5198 13.3482 12.3458 13.3482 10.93C13.3482 10.6883 13.3141 10.412 13.2459 10.2049H13.9959V13.8651C13.9959 14.0378 13.8596 14.2104 13.655 14.2104H7.72293C7.55247 14.2104 7.38201 14.0723 7.38201 13.8651V10.1703H8.16613C8.09795 10.412 8.06386 10.6538 8.06386 10.8955C8.02976 12.3458 9.223 13.5198 10.689 13.5198ZM10.689 12.4839C9.73438 12.4839 8.98435 11.7242 8.98435 10.7919C8.98435 9.85955 9.73438 9.09987 10.689 9.09987C11.6436 9.09987 12.3936 9.85955 12.3936 10.7919C12.3936 11.7588 11.6436 12.4839 10.689 12.4839ZM13.9618 8.7891C13.9618 8.99628 13.7914 9.16894 13.5868 9.16894H12.6322C12.4277 9.16894 12.2572 8.99628 12.2572 8.7891V7.85676C12.2572 7.64958 12.4277 7.47692 12.6322 7.47692H13.5868C13.7914 7.47692 13.9618 7.64958 13.9618 7.85676V8.7891Z" fill="white"/>
<defs>
<linearGradient id="paint0_linear_335_385" x1="4.43201" y1="18.7482" x2="18.4327" y2="4.40377" gradientUnits="userSpaceOnUse">
<stop stop-color="#EEA054"/>
<stop offset="0.502762" stop-color="#D64763"/>
<stop offset="1" stop-color="#B62A99"/>
</linearGradient>
</defs>
</svg>
