<svg width="40" height="40" viewBox="0 0 40 40" fill="none" xmlns="http://www.w3.org/2000/svg">
<rect x="39" y="39" width="38" height="38" rx="9" transform="rotate(-180 39 39)" fill="white" stroke="#FA7451" stroke-width="2"/>
<path d="M21.62 15.4533C21.7467 15.4533 21.8734 15.5 21.9734 15.6L26.02 19.6467C26.2134 19.84 26.2134 20.16 26.02 20.3533L21.9734 24.4C21.78 24.5933 21.46 24.5933 21.2667 24.4C21.0734 24.2067 21.0734 23.8867 21.2667 23.6933L24.96 20L21.2667 16.3067C21.0734 16.1133 21.0734 15.7933 21.2667 15.6C21.36 15.5 21.4934 15.4533 21.62 15.4533Z" fill="#FA7451"/>
<path d="M14.3333 19.5L25.5533 19.5C25.8267 19.5 26.0533 19.7267 26.0533 20C26.0533 20.2733 25.8267 20.5 25.5533 20.5L14.3333 20.5C14.06 20.5 13.8333 20.2733 13.8333 20C13.8333 19.7267 14.06 19.5 14.3333 19.5Z" fill="#FA7451"/>
</svg>
