<svg width="40" height="40" viewBox="0 0 40 40" fill="none" xmlns="http://www.w3.org/2000/svg">
<rect x="1" y="1" width="38" height="38" rx="9" fill="white" stroke="#FA7451" stroke-width="2"/>
<path d="M18.38 24.5467C18.2533 24.5467 18.1267 24.5 18.0267 24.4L13.98 20.3533C13.7867 20.16 13.7867 19.84 13.98 19.6467L18.0267 15.6C18.22 15.4067 18.54 15.4067 18.7333 15.6C18.9267 15.7933 18.9267 16.1133 18.7333 16.3067L15.04 20L18.7333 23.6933C18.9267 23.8867 18.9267 24.2067 18.7333 24.4C18.64 24.5 18.5067 24.5467 18.38 24.5467Z" fill="#FA7451"/>
<path d="M25.6667 20.5H14.4467C14.1733 20.5 13.9467 20.2733 13.9467 20C13.9467 19.7267 14.1733 19.5 14.4467 19.5H25.6667C25.94 19.5 26.1667 19.7267 26.1667 20C26.1667 20.2733 25.94 20.5 25.6667 20.5Z" fill="#FA7451"/>
</svg>
