<svg width="21" height="21" viewBox="0 0 21 21" fill="none" xmlns="http://www.w3.org/2000/svg">
<path d="M14.875 18.5938H6.125C5.76625 18.5938 5.46875 18.2963 5.46875 17.9375C5.46875 17.5787 5.76625 17.2812 6.125 17.2812H14.875C17.3775 17.2812 18.5938 16.065 18.5938 13.5625V7.4375C18.5938 4.935 17.3775 3.71875 14.875 3.71875H6.125C3.6225 3.71875 2.40625 4.935 2.40625 7.4375C2.40625 7.79625 2.10875 8.09375 1.75 8.09375C1.39125 8.09375 1.09375 7.79625 1.09375 7.4375C1.09375 4.24375 2.93125 2.40625 6.125 2.40625H14.875C18.0688 2.40625 19.9062 4.24375 19.9062 7.4375V13.5625C19.9062 16.7563 18.0688 18.5938 14.875 18.5938Z" fill="white"/>
<path d="M10.4998 11.2615C9.76481 11.2615 9.02106 11.034 8.45231 10.5702L5.71355 8.38272C5.43355 8.15522 5.38106 7.74397 5.60856 7.46397C5.83606 7.18397 6.2473 7.13147 6.5273 7.35897L9.26605 9.54647C9.93105 10.0802 11.0598 10.0802 11.7248 9.54647L14.4636 7.35897C14.7436 7.13147 15.1635 7.17522 15.3823 7.46397C15.6098 7.74397 15.566 8.16397 15.2773 8.38272L12.5385 10.5702C11.9785 11.034 11.2348 11.2615 10.4998 11.2615Z" fill="white"/>
<path d="M7 15.0938H1.75C1.39125 15.0938 1.09375 14.7962 1.09375 14.4375C1.09375 14.0788 1.39125 13.7812 1.75 13.7812H7C7.35875 13.7812 7.65625 14.0788 7.65625 14.4375C7.65625 14.7962 7.35875 15.0938 7 15.0938Z" fill="white"/>
<path d="M4.375 11.5938H1.75C1.39125 11.5938 1.09375 11.2962 1.09375 10.9375C1.09375 10.5788 1.39125 10.2812 1.75 10.2812H4.375C4.73375 10.2812 5.03125 10.5788 5.03125 10.9375C5.03125 11.2962 4.73375 11.5938 4.375 11.5938Z" fill="white"/>
</svg>
