<svg width="21" height="22" viewBox="0 0 21 22" fill="none" xmlns="http://www.w3.org/2000/svg">
<ellipse cx="10.4283" cy="10.5624" rx="10.4283" ry="10.5624" fill="#2F89CE"/>
<path d="M4.87561 10.7599L7.27312 11.6654L8.20773 14.7111C8.24837 14.9169 8.49218 14.9581 8.65473 14.8346L9.99569 13.7233C10.1176 13.5998 10.3208 13.5998 10.4833 13.7233L12.8808 15.4931C13.0434 15.6166 13.2872 15.5343 13.3278 15.3285L15.1158 6.68525C15.1564 6.47946 14.9532 6.27367 14.7501 6.35599L4.87561 10.2249C4.6318 10.3072 4.6318 10.6776 4.87561 10.7599ZM8.08583 11.2127L12.7995 8.29042C12.8808 8.24927 12.9621 8.37274 12.8808 8.4139L9.02044 12.077C8.89854 12.2005 8.77663 12.3651 8.77663 12.5709L8.65473 13.5587C8.65473 13.6822 8.45154 13.7233 8.41091 13.5587L7.92328 11.7477C7.80137 11.5419 7.88265 11.295 8.08583 11.2127Z" fill="white"/>
</svg>
