<svg width="21" height="22" viewBox="0 0 21 22" fill="none" xmlns="http://www.w3.org/2000/svg">
<ellipse cx="10.4283" cy="10.5624" rx="10.4283" ry="10.5624" fill="#7C509A"/>
<path d="M13.6891 5.56956C11.7017 5.18515 9.63793 5.18515 7.65056 5.56956C6.77153 5.76176 5.66318 6.83811 5.47209 7.68381C5.12812 9.33678 5.12812 11.0282 5.47209 12.6811C5.7014 13.5269 6.80974 14.6032 7.65056 14.7954C7.68878 14.7954 7.72699 14.8338 7.72699 14.8723V17.2941C7.72699 17.4094 7.87987 17.4863 7.95631 17.371L9.10287 16.1793C9.10287 16.1793 10.0201 15.2183 10.173 15.0645C10.173 15.0645 10.2112 15.0261 10.2494 15.0261C11.396 15.0645 12.5808 14.9492 13.7273 14.757C14.6064 14.5648 15.7147 13.4884 15.9058 12.6427C16.2498 10.9897 16.2498 9.29834 15.9058 7.64537C15.6765 6.83811 14.5682 5.76176 13.6891 5.56956ZM13.7273 12.7965C13.5362 13.1809 13.3069 13.4884 12.9247 13.6806C12.8101 13.7191 12.6954 13.7575 12.5808 13.7959C12.4279 13.7575 12.3132 13.7191 12.1986 13.6806C10.9756 13.1809 9.82903 12.4889 8.91178 11.4895C8.41493 10.9129 7.99453 10.2594 7.65056 9.56742C7.49768 9.22146 7.34481 8.91393 7.23015 8.56796C7.11549 8.26043 7.30659 7.9529 7.49768 7.72226C7.68877 7.49161 7.91809 7.33784 8.18562 7.22252C8.37671 7.1072 8.56781 7.18408 8.72068 7.33785C9.02643 7.72226 9.33218 8.10667 9.56149 8.52952C9.71437 8.7986 9.67615 9.10613 9.40862 9.29834C9.33218 9.33678 9.29396 9.37522 9.21753 9.4521C9.17931 9.49054 9.10287 9.52898 9.06465 9.60587C8.98821 9.72119 8.98821 9.83651 9.02643 9.95184C9.33218 10.836 9.90546 11.5279 10.7845 11.9123C10.9374 11.9892 11.052 12.0277 11.2431 12.0277C11.5107 11.9892 11.6253 11.6817 11.8164 11.5279C12.0075 11.3742 12.2368 11.3742 12.4661 11.4895C12.6572 11.6048 12.8483 11.7586 13.0776 11.9123C13.2687 12.0661 13.4598 12.1814 13.6509 12.3352C13.7656 12.4121 13.8038 12.6043 13.7273 12.7965ZM12.1222 9.91339C12.0457 9.91339 12.0839 9.91339 12.1222 9.91339C11.9693 9.91339 11.9311 9.83651 11.8928 9.72119C11.8928 9.64431 11.8928 9.52898 11.8546 9.4521C11.8164 9.29834 11.74 9.14457 11.5871 9.02925C11.5107 8.99081 11.4342 8.95237 11.3578 8.91393C11.2431 8.87549 11.1667 8.87549 11.052 8.87549C10.9374 8.83705 10.8992 8.76016 10.8992 8.64484C10.8992 8.56796 11.0138 8.49108 11.0902 8.49108C11.7017 8.52952 12.1604 8.87549 12.2368 9.60587C12.2368 9.64431 12.2368 9.72119 12.2368 9.75963C12.2368 9.83651 12.1986 9.91339 12.1222 9.91339ZM11.74 8.22199C11.5489 8.14511 11.3578 8.06822 11.1285 8.02978C11.052 8.02978 10.9374 7.99134 10.8609 7.99134C10.7463 7.99134 10.6698 7.91446 10.7081 7.79914C10.7081 7.68381 10.7845 7.60693 10.8992 7.64537C11.2813 7.68381 11.6253 7.7607 11.9693 7.91446C12.6572 8.26043 13.0394 8.83704 13.1541 9.60587C13.1541 9.64431 13.1541 9.68275 13.1541 9.72119C13.1541 9.79807 13.1541 9.87495 13.1541 9.99028C13.1541 10.0287 13.1541 10.0672 13.1541 10.1056C13.1158 10.2594 12.8483 10.2978 12.8101 10.1056C12.8101 10.0672 12.7719 9.99028 12.7719 9.95184C12.7719 9.60587 12.6954 9.2599 12.5426 8.95237C12.3132 8.6064 12.0457 8.37575 11.74 8.22199ZM13.8038 10.5285C13.6891 10.5285 13.6127 10.4131 13.6127 10.2978C13.6127 10.0672 13.5745 9.83651 13.5362 9.60587C13.3834 8.37575 12.3897 7.37629 11.2049 7.18408C11.0138 7.14564 10.8227 7.14564 10.6698 7.1072C10.5552 7.1072 10.4023 7.1072 10.3641 6.95344C10.3259 6.83811 10.4405 6.72279 10.5552 6.72279C10.5934 6.72279 10.6316 6.72279 10.6316 6.72279C10.7081 6.72279 12.1986 6.76123 10.6316 6.72279C12.2368 6.76123 13.5745 7.83758 13.842 9.4521C13.8802 9.72119 13.9184 9.99028 13.9184 10.2978C13.9949 10.4131 13.9184 10.5285 13.8038 10.5285Z" fill="white"/>
</svg>
