<svg width="52" height="16" viewBox="0 0 52 16" fill="none" xmlns="http://www.w3.org/2000/svg">
<path d="M47.5963 0.228516H44.3884C43.4186 0.228516 42.6726 0.533358 42.2249 1.52409L36.1075 15.7755H40.4345C40.4345 15.7755 41.1805 13.8702 41.3297 13.4129C41.7773 13.4129 46.0297 13.4129 46.6265 13.4129C46.7757 13.9464 47.1487 15.6992 47.1487 15.6992H51.028L47.5963 0.228516ZM42.5233 10.2121C42.8964 9.29756 44.1646 5.86809 44.1646 5.86809C44.1646 5.9443 44.5376 4.95357 44.6868 4.42009L44.9852 5.79188C44.9852 5.79188 45.8059 9.5262 45.9551 10.2883H42.5233V10.2121Z" fill="white"/>
<path d="M36.4059 10.6695C36.4059 13.8703 33.571 16.0042 29.1695 16.0042C27.3044 16.0042 25.514 15.6232 24.5442 15.1659L25.141 11.6602L25.6632 11.8888C27.006 12.4985 27.9013 12.7272 29.5425 12.7272C30.7362 12.7272 32.0044 12.2699 32.0044 11.2029C32.0044 10.517 31.4822 10.0598 29.8409 9.29768C28.2743 8.53557 26.1854 7.31621 26.1854 5.1061C26.1854 2.05768 29.0949 0 33.198 0C34.7647 0 36.1075 0.304842 36.9282 0.685894L36.3313 4.03916L36.0329 3.73431C35.2869 3.42947 34.3171 3.12463 32.8996 3.12463C31.333 3.20084 30.587 3.88674 30.587 4.49642C30.587 5.18231 31.4822 5.71579 32.8996 6.40168C35.2869 7.54484 36.4059 8.84042 36.4059 10.6695Z" fill="white"/>
<path d="M0 0.381014L0.0746024 0.0761719H6.49041C7.38564 0.0761719 8.05706 0.381014 8.28087 1.37175L9.69831 8.23069C8.28087 4.57259 4.99836 1.60038 0 0.381014Z" fill="#F9B50B"/>
<path d="M18.7252 0.228554L12.2348 15.6993H7.83327L4.10315 2.7435C6.78884 4.49634 9.02691 7.23992 9.84753 9.14518L10.2951 10.7456L14.3237 0.152344H18.7252V0.228554Z" fill="white"/>
<path d="M20.441 0.152344H24.5442L21.9331 15.6993H17.83L20.441 0.152344Z" fill="white"/>
</svg>
