<svg width="21" height="22" viewBox="0 0 21 22" fill="none" xmlns="http://www.w3.org/2000/svg">
<ellipse cx="10.4283" cy="10.5624" rx="10.4283" ry="10.5624" fill="#48C95F"/>
<path d="M14.5614 6.3703C13.5313 5.33056 12.1578 4.75293 10.708 4.75293C7.694 4.75293 5.25226 7.21749 5.25226 10.2597C5.25226 11.2224 5.51933 12.1851 5.97715 12.9938L5.21411 15.8434L8.11368 15.0733C8.91487 15.4969 9.79237 15.7279 10.708 15.7279C13.722 15.7279 16.1638 13.2634 16.1638 10.2212C16.1256 8.79635 15.5915 7.41003 14.5614 6.3703ZM13.3405 12.2236C13.2261 12.5317 12.6919 12.8398 12.4249 12.8783C12.196 12.9168 11.8907 12.9168 11.5855 12.8398C11.3948 12.7627 11.1277 12.6857 10.8225 12.5317C9.449 11.9541 8.5715 10.5677 8.4952 10.4522C8.4189 10.3752 7.92292 9.72055 7.92292 9.0274C7.92292 8.33424 8.26629 8.02617 8.38074 7.87214C8.4952 7.7181 8.64781 7.7181 8.76226 7.7181C8.83857 7.7181 8.95302 7.7181 9.02933 7.7181C9.10563 7.7181 9.22009 7.67959 9.33455 7.94915C9.449 8.21871 9.71607 8.91187 9.75422 8.95038C9.79237 9.0274 9.79237 9.10442 9.75422 9.18143C9.71607 9.25845 9.67791 9.33547 9.60161 9.41249C9.52531 9.4895 9.449 9.60503 9.41085 9.64354C9.33454 9.72056 9.25824 9.79757 9.33455 9.9131C9.41085 10.0671 9.67792 10.4907 10.0976 10.8758C10.6317 11.3379 11.0514 11.492 11.204 11.569C11.3566 11.646 11.4329 11.6075 11.5092 11.5305C11.5855 11.4534 11.8526 11.1454 11.9289 10.9913C12.0052 10.8373 12.1197 10.8758 12.2341 10.9143C12.3486 10.9528 13.0353 11.2994 13.1498 11.3764C13.3024 11.4534 13.3787 11.492 13.4168 11.5305C13.455 11.646 13.455 11.9156 13.3405 12.2236Z" fill="white"/>
</svg>
